<?xml version="1.0" encoding="iso-8859-1"?>
<!-- Uploaded to: SVG Repo, www.svgrepo.com, Generator: SVG Repo Mixer Tools -->
<svg fill="#000000" height="800px" width="800px" version="1.1" id="Layer_1" xmlns="http://www.w3.org/2000/svg" xmlns:xlink="http://www.w3.org/1999/xlink" 
	 viewBox="0 0 512 512" xml:space="preserve">
<g>
	<g>
		<path d="M418.795,377.63c-9.93-9.036-25.3-8.522-34.995,1.173l-30.75,30.751c-4.606-5.856-11.749-9.624-19.747-9.624
			c-0.063,0-0.128,0-0.192,0l-61.502,0.463l-21.59-21.588c-14.434-14.435-33.627-22.385-54.041-22.385
			c-20.414,0-39.607,7.95-54.041,22.385l-54.419,54.418c-2.919,2.919-3.113,7.74-0.427,10.878c2.997,3.501,8.503,3.72,11.763,0.46
			l54.419-54.418c11.406-11.407,26.573-17.69,42.704-17.69c16.132,0,31.297,6.283,42.704,17.69l24.186,24.186
			c2.055,2.054,4.948,2.751,7.578,2.108l62.784-0.472c0.023,0,0.046,0,0.069,0c4.978,0,9.047,4.031,9.085,9.017
			c0.039,5.01-4.007,9.115-9.017,9.153l-64.663,0.486c-4.427,0.033-7.989,3.649-7.956,8.078c0.033,4.407,3.616,7.956,8.016,7.956
			c0.02,0,0.041,0,0.062,0l64.662-0.486c13.15-0.099,23.888-10.339,24.853-23.228l36.797-36.797c3.569-3.57,9.34-3.862,12.865-0.652
			c3.79,3.449,3.957,9.529,0.326,13.159l-12.434,12.434c-3.131,3.131-3.131,8.207,0,11.337c3.13,3.132,8.206,3.131,11.337,0.001
			l12.435-12.435c4.831-4.832,7.51-11.522,7.349-18.354C426.853,388.699,423.933,382.306,418.795,377.63z"/>
	</g>
</g>
<g>
	<g>
		<path d="M376.997,445.317c-3.129-3.131-8.205-3.131-11.336-0.001l-21.839,21.839H239.098l-59.687-11.937
			c-2.627-0.526-5.346,0.297-7.241,2.192l-30.233,30.233c-2.919,2.919-3.113,7.74-0.427,10.878c2.997,3.501,8.503,3.72,11.763,0.46
			l27.199-27.199l56.258,11.251c0.517,0.104,1.044,0.156,1.572,0.156h108.839c2.126,0,4.164-0.844,5.668-2.347l24.186-24.186
			C380.127,453.522,380.127,448.447,376.997,445.317z"/>
	</g>
</g>
<g>
	<g>
		<path d="M504.518,306.254h-9.233c-1.982-60.927-26.301-117.242-69.016-160.365c-3.117-3.145-8.193-3.303-11.337-0.187
			c-3.146,3.116-3.169,8.392-0.055,11.538c39.723,40.103,62.408,92.363,64.381,149.014H33.812
			C38.05,186.537,136.332,91.139,256.534,91.139c47.931,0,93.599,14.849,132.065,43.193c3.564,2.626,8.584,1.8,11.209-1.765
			c2.626-3.565,1.866-8.617-1.698-11.244c-37.616-27.719-81.653-43.528-128.09-46.091c11.87-5.21,20.184-17.078,20.184-30.849
			c0-18.566-15.105-33.674-33.67-33.674c-18.566,0-33.67,15.102-33.67,33.668c0,13.777,8.321,25.64,20.198,30.847
			c-58.746,3.244-113.523,27.922-155.455,69.853c-43.226,43.227-67.832,100.249-69.823,161.176H8.551
			c-4.427,0-8.551,3.054-8.551,7.482v25.653c0,4.428,4.124,8.551,8.551,8.551h495.967c4.427,0,7.482-4.123,7.482-8.551v-25.653
			C512,309.307,508.945,306.254,504.518,306.254z M238.898,44.375c0-9.725,7.912-17.637,17.637-17.637s17.637,7.912,17.637,17.637
			s-7.912,17.637-17.637,17.637C246.81,62.011,238.898,54.099,238.898,44.375z M495.967,331.907H16.033v-9.62h479.933V331.907z"/>
	</g>
</g>
<g>
	<g>
		<path d="M239.432,210.588c4.427,0,8.017-3.588,8.017-8.017v-34.205c0-4.428-3.589-8.017-8.017-8.017h-34.205
			c-4.427,0-8.017,3.588-8.017,8.017c0,4.428,3.589,8.017,8.017,8.017h26.188v18.171h-26.188c-4.427,0-8.017,3.588-8.017,8.017
			v34.205c0,4.428,3.589,8.017,8.017,8.017h34.205c4.427,0,8.017-3.588,8.017-8.017c0-4.428-3.589-8.017-8.017-8.017h-26.188
			v-18.171H239.432z"/>
	</g>
</g>
<g>
	<g>
		<path d="M307.841,203.105h-9.086v-17.637c0-4.428-3.589-8.017-8.017-8.017c-4.427,0-8.017,3.588-8.017,8.017v17.637h-9.62v-34.739
			c0-4.428-3.589-8.017-8.017-8.017c-4.427,0-8.017,3.588-8.017,8.017v42.756c0,4.428,3.589,8.017,8.017,8.017h17.637v17.637
			c0,4.428,3.589,8.017,8.017,8.017c4.427,0,8.017-3.588,8.017-8.017v-17.637h9.086c4.427,0,8.017-3.588,8.017-8.017
			C315.858,206.694,312.269,203.105,307.841,203.105z"/>
	</g>
</g>
<g>
	<g>
		<path d="M342.046,150.73c4.427,0,8.017-3.588,8.017-8.017s-3.589-8.017-8.017-8.017h-25.653c-4.427,0-8.017,3.588-8.017,8.017
			v25.653c0,4.428,3.589,8.017,8.017,8.017c4.427,0,8.017-3.588,8.017-8.017v-3.211c6.311,11.393,9.62,24.14,9.62,37.416
			c0,42.731-34.764,77.495-77.495,77.495c-42.731,0-77.495-34.764-77.495-77.495c0-42.731,34.764-77.495,77.495-77.495
			c4.427,0,8.017-3.588,8.017-8.017c0-4.428-3.589-8.017-8.017-8.017c-51.572,0-93.528,41.956-93.528,93.528
			c0,51.572,41.956,93.528,93.528,93.528s93.528-41.956,93.528-93.528c0-18.668-5.418-36.477-15.689-51.841H342.046z"/>
	</g>
</g>
</svg>